{
	"asset":{
		"generator":"Khronos glTF Blender I/O v4.3.47",
		"version":"2.0"
	},
	"extensionsUsed":[
		"KHR_materials_specular",
		"KHR_texture_transform"
	],
	"extensionsRequired":[
		"KHR_texture_transform"
	],
	"scene":0,
	"scenes":[
		{
			"name":"Scene",
			"nodes":[
				0
			]
		}
	],
	"nodes":[
		{
			"mesh":0,
			"name":"Axe",
			"translation":[
				0,
				2.7957093715667725,
				-1.1395169496536255
			]
		}
	],
	"materials":[
		{
			"doubleSided":true,
			"name":"Old Metal",
			"normalTexture":{
				"index":0,
				"texCoord":1
			},
			"pbrMetallicRoughness":{
				"baseColorTexture":{
					"index":1,
					"texCoord":1
				},
				"metallicRoughnessTexture":{
					"index":2,
					"texCoord":1
				}
			}
		},
		{
			"doubleSided":true,
			"extensions":{
				"KHR_materials_specular":{
					"specularFactor":0
				}
			},
			"name":"Natural Wood",
			"normalTexture":{
				"extensions":{
					"KHR_texture_transform":{
						"offset":[
							-0.07027878516484469,
							0.0024726107240194972
						],
						"rotation":0.07033676654100418
					}
				},
				"index":3,
				"texCoord":1
			},
			"pbrMetallicRoughness":{
				"baseColorTexture":{
					"extensions":{
						"KHR_texture_transform":{
							"offset":[
								-0.07027878516484469,
								0.0024726107240194972
							],
							"rotation":0.07033676654100418
						}
					},
					"index":4,
					"texCoord":1
				},
				"metallicFactor":0,
				"metallicRoughnessTexture":{
					"extensions":{
						"KHR_texture_transform":{
							"offset":[
								-0.07027878516484469,
								0.0024726107240194972
							],
							"rotation":0.07033676654100418
						}
					},
					"index":5,
					"texCoord":1
				}
			}
		}
	],
	"meshes":[
		{
			"name":"Cube.002",
			"primitives":[
				{
					"attributes":{
						"POSITION":0,
						"NORMAL":1,
						"TEXCOORD_0":2,
						"TEXCOORD_1":3
					},
					"indices":4,
					"material":0
				},
				{
					"attributes":{
						"POSITION":5,
						"NORMAL":6,
						"TEXCOORD_0":7,
						"TEXCOORD_1":8
					},
					"indices":9,
					"material":1
				}
			]
		}
	],
	"textures":[
		{
			"sampler":0,
			"source":0
		},
		{
			"sampler":0,
			"source":1
		},
		{
			"sampler":0,
			"source":2
		},
		{
			"sampler":0,
			"source":3
		},
		{
			"sampler":0,
			"source":4
		},
		{
			"sampler":0,
			"source":5
		}
	],
	"images":[
		{
			"mimeType":"image/jpeg",
			"name":"Used Metal_normal",
			"uri":"Used%20Metal_normal.jpg"
		},
		{
			"mimeType":"image/jpeg",
			"name":"Used Metal_basecolor",
			"uri":"Used%20Metal_basecolor.jpg"
		},
		{
			"mimeType":"image/png",
			"name":"Used Metal_metallic.jpg-Used Metal_roughness.jpg",
			"uri":"Used%20Metal_metallic_jpg-Used%20Metal_roughness_jpg.png"
		},
		{
			"mimeType":"image/jpeg",
			"name":"wood_21_normal",
			"uri":"wood_21_normal.jpg"
		},
		{
			"mimeType":"image/jpeg",
			"name":"wood_21_color",
			"uri":"wood_21_color.jpg"
		},
		{
			"mimeType":"image/png",
			"name":"wood_21_roughness",
			"uri":"wood_21_roughness.png"
		}
	],
	"accessors":[
		{
			"bufferView":0,
			"componentType":5126,
			"count":1595,
			"max":[
				0.4285815954208374,
				2.5280284881591797,
				3.0622787475585938
			],
			"min":[
				-0.4270784854888916,
				-3.713942766189575,
				-2.4997611045837402
			],
			"type":"VEC3"
		},
		{
			"bufferView":1,
			"componentType":5126,
			"count":1595,
			"type":"VEC3"
		},
		{
			"bufferView":2,
			"componentType":5126,
			"count":1595,
			"type":"VEC2"
		},
		{
			"bufferView":3,
			"componentType":5126,
			"count":1595,
			"type":"VEC2"
		},
		{
			"bufferView":4,
			"componentType":5123,
			"count":5412,
			"type":"SCALAR"
		},
		{
			"bufferView":5,
			"componentType":5126,
			"count":572,
			"max":[
				0.3633091151714325,
				2.4356870651245117,
				1.7666528224945068
			],
			"min":[
				-0.3631913959980011,
				-7.706770420074463,
				0.42557501792907715
			],
			"type":"VEC3"
		},
		{
			"bufferView":6,
			"componentType":5126,
			"count":572,
			"type":"VEC3"
		},
		{
			"bufferView":7,
			"componentType":5126,
			"count":572,
			"type":"VEC2"
		},
		{
			"bufferView":8,
			"componentType":5126,
			"count":572,
			"type":"VEC2"
		},
		{
			"bufferView":9,
			"componentType":5123,
			"count":1824,
			"type":"SCALAR"
		}
	],
	"bufferViews":[
		{
			"buffer":0,
			"byteLength":19140,
			"byteOffset":0,
			"target":34962
		},
		{
			"buffer":0,
			"byteLength":19140,
			"byteOffset":19140,
			"target":34962
		},
		{
			"buffer":0,
			"byteLength":12760,
			"byteOffset":38280,
			"target":34962
		},
		{
			"buffer":0,
			"byteLength":12760,
			"byteOffset":51040,
			"target":34962
		},
		{
			"buffer":0,
			"byteLength":10824,
			"byteOffset":63800,
			"target":34963
		},
		{
			"buffer":0,
			"byteLength":6864,
			"byteOffset":74624,
			"target":34962
		},
		{
			"buffer":0,
			"byteLength":6864,
			"byteOffset":81488,
			"target":34962
		},
		{
			"buffer":0,
			"byteLength":4576,
			"byteOffset":88352,
			"target":34962
		},
		{
			"buffer":0,
			"byteLength":4576,
			"byteOffset":92928,
			"target":34962
		},
		{
			"buffer":0,
			"byteLength":3648,
			"byteOffset":97504,
			"target":34963
		}
	],
	"samplers":[
		{
			"magFilter":9729,
			"minFilter":9987
		}
	],
	"buffers":[
		{
			"byteLength":101152,
			"uri":"ThrowingAxe.bin"
		}
	]
}
